<?xml version="1.0" encoding="UTF-8"?><svg id="Laag_2" xmlns="http://www.w3.org/2000/svg" viewBox="0 0 123.13 86.15"><defs><style>.cls-1,.cls-2,.cls-3,.cls-4{fill:#12120d;}.cls-2{stroke-width:2px;}.cls-2,.cls-3{stroke:#12120d;stroke-miterlimit:10;}.cls-3{font-family:Didot-Bold, Didot;font-size:31px;font-weight:700;letter-spacing:.05em;stroke-width:.5px;}.cls-5{fill:#891221;}.cls-5,.cls-6{opacity:.6;}.cls-6{fill:#51320f;}.cls-7{fill:#8e5920;opacity:.51;}.cls-4{font-family:FuturaStd-CondensedLight, 'Futura Std';font-size:8px;font-weight:300;letter-spacing:.2em;}</style></defs><path class="cls-7" d="M72.96,36.38c.97-.82-.77-3.74-1.24-4.97-.51-1.31-1.77-2.53,1.52-5.11,3.29-2.58,3.54-7.28,1.92-12.54-1.62-5.26-2.38-11.22-2.12-12.84-4.2-.45-6.85-.35-6.85-.35-.81,0-2.93-.1-7.13,.35,.25,1.62-.51,7.58-2.12,12.84-1.62,5.26-1.36,9.96,1.92,12.54,3.29,2.58,2.02,3.79,1.52,5.11-.36,.95-1.47,2.88-1.53,4.1h0c-.02,.34,.05,.62,.23,.82"/><path class="cls-6" d="M68.17,36.38c.97-.82-.77-3.74-1.24-4.97-.51-1.31-1.77-2.53,1.52-5.11,3.29-2.58,3.54-7.28,1.92-12.54-1.62-5.26-2.38-11.22-2.12-12.84-4.2-.45-6.85-.35-6.85-.35-.81,0-2.93-.1-7.13,.35,.25,1.62-.51,7.58-2.12,12.84-1.62,5.26-1.36,9.96,1.92,12.54,3.29,2.58,2.02,3.79,1.52,5.11-.36,.95-1.47,2.88-1.53,4.1h0c-.02,.34,.05,.62,.23,.82"/><path class="cls-5" d="M62.51,36.25c.96-.81-.76-3.68-1.22-4.89-.5-1.29-1.74-2.49,1.49-5.03s3.48-7.16,1.89-12.34-2.34-11.05-2.09-12.64c-4.13-.45-6.74-.35-6.74-.35-.8,0-2.89-.1-7.02,.35,.25,1.59-.5,7.46-2.09,12.64-1.59,5.17-1.34,9.8,1.89,12.34,3.23,2.54,1.99,3.73,1.49,5.03-.36,.93-1.45,2.84-1.51,4.04h0c-.02,.33,.05,.61,.23,.8"/><path class="cls-1" d="M62.51,36.25c.28-.29,.26-.72,.19-1.08-.47-1.93-1.79-3.48-2.36-5.38-.34-1.81,1.34-3.11,2.44-4.14,2.77-2.65,2.36-6.94,1.41-10.35-1.38-4.59-2.75-9.24-2.58-14.09,0,0,.85,1.11,.85,1.11-3.37-.36-6.78-.4-10.16-.27-1.13,.06-2.25,.15-3.38,.27l.85-1.12c.16,4.73-1.14,9.32-2.49,13.77-.97,3.33-1.5,7.44,.91,10.24,1.05,1.17,2.51,2,2.87,3.69,.17,.92-.32,1.72-.63,2.34-.61,1.4-1.52,2.66-1.78,4.14,0,0-.05-.05-.05-.05,.07,0,.05,0,.05,.05-.03,.27,0,.58,.18,.8-.21-.2-.28-.52-.28-.8,0-1.19,.92-3.02,1.4-4.35,.3-.72,.6-1.38,.42-1.99-.4-1.39-1.99-2.11-2.95-3.12-1.75-1.73-2.4-4.34-2.36-6.71-.02-3.13,1.14-6.07,1.76-9.06,.55-2.79,1.15-5.85,1.03-8.66,0,0-.12-1.01-.12-1.01,5.28-.68,10.64-.67,15.92,0-.48,4,.58,8.21,1.49,12.12,1.09,3.8,2.03,8.21-.07,11.86-.59,1.08-1.57,1.95-2.54,2.64-.77,.63-1.7,1.51-1.56,2.55,.41,1.85,1.62,3.55,1.84,5.47,.03,.38,0,.84-.32,1.1h0Z"/><text class="cls-3" transform="translate(.25 70.53) scale(.85 1)"><tspan x="0" y="0">TASTED</tspan></text><line class="cls-2" x1="7.26" y1="36.57" x2="113.82" y2="36.57"/><text class="cls-4" transform="translate(31.75 84.38)"><tspan x="0" y="0">wine and spirits</tspan></text></svg>