<?xml version="1.0" encoding="UTF-8"?><svg id="Laag_1" xmlns="http://www.w3.org/2000/svg" viewBox="0 0 31.16 36.38"><defs><style>.cls-1{fill:#1d1d1b;}.cls-2{fill:#55361b;}.cls-2,.cls-3{opacity:.6;}.cls-3{fill:#8b1926;}.cls-4{fill:#925c29;opacity:.51;}</style></defs><path class="cls-4" d="M27.98,36.38c.98-.83-.77-3.75-1.25-4.99-.51-1.32-1.78-2.54,1.52-5.13,3.3-2.59,3.55-7.31,1.93-12.59-1.62-5.28-2.39-11.27-2.13-12.9-4.21-.46-6.88-.36-6.88-.36-.81,0-2.94-.1-7.16,.36,.25,1.62-.51,7.62-2.13,12.9-1.62,5.28-1.37,10,1.93,12.59s2.03,3.81,1.52,5.13c-.37,.95-1.48,2.89-1.54,4.12h0c-.02,.34,.05,.63,.23,.82"/><path class="cls-2" d="M23.17,36.38c.98-.83-.77-3.75-1.25-4.99-.51-1.32-1.78-2.54,1.52-5.13,3.3-2.59,3.55-7.31,1.93-12.59-1.62-5.28-2.39-11.27-2.13-12.9-4.21-.46-6.88-.36-6.88-.36-.81,0-2.94-.1-7.16,.36,.25,1.62-.51,7.62-2.13,12.9-1.62,5.28-1.37,10,1.93,12.59,3.3,2.59,2.03,3.81,1.52,5.13-.37,.95-1.48,2.89-1.54,4.12h0c-.02,.34,.05,.63,.23,.82"/><path class="cls-3" d="M17.42,36.35c.96-.81-.76-3.69-1.23-4.91-.5-1.3-1.75-2.49,1.5-5.04,3.24-2.54,3.49-7.18,1.9-12.37s-2.35-11.08-2.1-12.67c-4.14-.45-6.76-.35-6.76-.35-.8,0-2.89-.1-7.04,.35,.25,1.6-.5,7.48-2.1,12.67s-1.35,9.83,1.9,12.37,2,3.74,1.5,5.04c-.36,.93-1.45,2.84-1.51,4.05h0c-.02,.33,.05,.61,.23,.8"/><path class="cls-1" d="M17.43,36.25c.28-.29,.26-.72,.19-1.08-.47-1.93-1.79-3.48-2.36-5.38-.34-1.81,1.34-3.11,2.44-4.14,2.77-2.65,2.36-6.94,1.41-10.35-1.38-4.59-2.75-9.24-2.58-14.09,0,0,.85,1.11,.85,1.11-3.37-.36-6.78-.4-10.16-.27-1.13,.06-2.25,.15-3.38,.27l.85-1.12c.16,4.73-1.14,9.32-2.49,13.77-.97,3.33-1.5,7.44,.91,10.24,1.05,1.17,2.51,2,2.87,3.69,.17,.92-.32,1.72-.63,2.34-.61,1.4-1.52,2.66-1.78,4.14,0,0-.05-.05-.05-.05,.07,0,.05,0,.05,.05-.03,.27,0,.58,.18,.8-.21-.2-.28-.52-.28-.8,0-1.19,.92-3.02,1.4-4.35,.3-.72,.6-1.38,.42-1.99-.4-1.39-1.99-2.11-2.95-3.12C.61,24.21-.05,21.6,0,19.23c-.02-3.13,1.14-6.07,1.76-9.06,.55-2.79,1.15-5.85,1.03-8.66,0,0-.12-1.01-.12-1.01,5.28-.68,10.64-.67,15.92,0-.48,4,.58,8.21,1.49,12.12,1.09,3.8,2.03,8.21-.07,11.86-.59,1.08-1.57,1.95-2.54,2.64-.77,.63-1.7,1.51-1.56,2.55,.41,1.85,1.62,3.55,1.84,5.47,.03,.38,0,.84-.32,1.1h0Z"/></svg>